<svg width="195" height="169" viewBox="0 0 195 169" fill="none" xmlns="http://www.w3.org/2000/svg">
<path d="M195 82C195 143.5 155.5 150.5 96.5 159C42 148.5 -9.3038e-05 142.195 0 82C0 4.5 35.7487 0 96.5 0C157.251 0 195 10.8242 195 82Z" fill="#46ACC0"/>
<path d="M187.5 92.3558C187.5 129.635 147 147 97.4999 151.5C45.4999 144 7.49994 129.635 7.49994 92.3558C7.49994 55.0766 7.49994 -6.14418 97.4999 24.8558C184 -7.14417 187.5 55.0766 187.5 92.3558Z" fill="#AAD5DF"/>
<path d="M97.4999 91.5C102.409 91.5 106.83 92.496 110.004 94.083C113.208 95.6851 115 97.8061 115 100C115 99.9929 114.999 100.035 114.95 100.144C114.905 100.245 114.831 100.376 114.723 100.534C114.505 100.85 114.173 101.243 113.731 101.687C112.849 102.572 111.56 103.626 109.96 104.64C106.755 106.669 102.348 108.5 97.4999 108.5C92.6521 108.5 88.2446 106.666 85.04 104.635C83.4395 103.621 82.1506 102.565 81.2685 101.681C80.8266 101.238 80.4947 100.845 80.2773 100.529C80.1685 100.372 80.094 100.241 80.0488 100.141C80.0003 100.033 79.9999 99.9913 79.9999 100C79.9999 97.8061 81.7918 95.6851 84.996 94.083C88.1703 92.496 92.5904 91.5 97.4999 91.5Z" fill="#111827" stroke="#0D1B2A"/>
<path d="M52.4999 105C72.7173 131.809 122.25 131.524 145.5 105" stroke="#0D1B2A" stroke-width="5" stroke-linecap="round"/>
<path d="M53.4999 80.5378C31.9999 83.5378 11.4999 122.538 11.4999 122.538L2.49994 89.0378C18.9999 54.0378 45.4999 49.5378 45.4999 49.5378C96.4999 40.0378 74.9999 77.5378 53.4999 80.5378Z" fill="#46ACC0" stroke="#46ACC0"/>
<path d="M141.916 80.5378C163.416 83.5378 183.916 122.538 183.916 122.538L192.916 89.0378C176.416 54.0378 149.916 49.5378 149.916 49.5378C98.9163 40.0378 120.416 77.5378 141.916 80.5378Z" fill="#46ACC0" stroke="#46ACC0"/>
<path d="M42.4999 67C46.8478 56.2764 57.4999 56.3905 62.4999 67" stroke="#0D1B2A" stroke-width="5" stroke-linecap="round"/>
<path d="M135.5 67C139.848 56.2764 150.5 56.3905 155.5 67" stroke="#0D1B2A" stroke-width="5" stroke-linecap="round"/>
<path d="M43.1583 142.524L81.5635 153.497L113.927 152.501L169.374 138.016L169.825 138.879C167.151 141.171 162.636 143.819 157.407 146.492C152.167 149.171 146.172 151.894 140.511 154.334C134.849 156.774 129.515 158.932 125.598 160.48C123.639 161.255 122.034 161.876 120.918 162.305C120.361 162.519 119.925 162.685 119.629 162.797C119.481 162.853 119.367 162.895 119.291 162.924C119.253 162.938 119.224 162.95 119.205 162.957C119.195 162.961 119.188 162.963 119.183 162.965C119.181 162.966 119.179 162.966 119.178 162.967L119.176 162.968L118.059 163.387L118.543 162.297L118.548 162.287C118.551 162.28 118.556 162.267 118.563 162.252C118.576 162.221 118.595 162.175 118.619 162.116C118.668 161.997 118.736 161.826 118.812 161.618C118.963 161.201 119.142 160.646 119.261 160.084C119.381 159.511 119.427 158.98 119.353 158.586C119.282 158.217 119.131 158.047 118.879 157.984C118.844 157.976 118.752 157.968 118.582 157.991C118.419 158.014 118.214 158.062 117.969 158.136C117.479 158.284 116.868 158.526 116.174 158.839C114.787 159.463 113.114 160.345 111.493 161.249C109.875 162.152 108.317 163.071 107.164 163.765C106.588 164.111 106.112 164.401 105.781 164.604C105.616 164.706 105.486 164.786 105.398 164.841C105.355 164.868 105.321 164.888 105.299 164.902C105.288 164.909 105.279 164.915 105.273 164.919C105.271 164.921 105.268 164.922 105.267 164.923L105.266 164.924L104.671 165.295L104.513 164.612C104.513 164.612 104.512 164.611 104.512 164.609C104.511 164.607 104.511 164.603 104.51 164.598C104.507 164.587 104.503 164.57 104.497 164.548C104.486 164.504 104.469 164.438 104.447 164.355C104.403 164.19 104.337 163.956 104.25 163.684C104.075 163.135 103.82 162.45 103.499 161.865C103.163 161.254 102.815 160.867 102.502 160.748C102.369 160.697 102.233 160.692 102.071 160.755C101.896 160.823 101.664 160.985 101.384 161.32C100.131 162.824 98.6284 164.576 97.4405 165.951C96.8463 166.639 96.3304 167.234 95.963 167.656C95.7795 167.867 95.633 168.035 95.5323 168.15C95.482 168.208 95.4424 168.253 95.4161 168.283C95.4031 168.298 95.3935 168.31 95.3868 168.317C95.3835 168.321 95.3806 168.324 95.379 168.326L95.376 168.329L95.0001 168.759L94.6241 168.329C94.6237 168.329 94.622 168.327 94.6212 168.326C94.6195 168.324 94.6167 168.321 94.6133 168.317C94.6067 168.31 94.597 168.298 94.584 168.283C94.5578 168.253 94.5181 168.208 94.4678 168.15C94.3672 168.035 94.2206 167.867 94.0372 167.656C93.6697 167.234 93.1538 166.639 92.5596 165.951C91.3717 164.576 89.869 162.824 88.6163 161.32C88.3366 160.985 88.1042 160.823 87.9288 160.755C87.7668 160.692 87.631 160.697 87.4981 160.748C87.1852 160.867 86.8371 161.254 86.501 161.865C86.1797 162.45 85.9254 163.135 85.7501 163.684C85.6632 163.956 85.597 164.19 85.5528 164.355C85.5307 164.438 85.5139 164.504 85.503 164.548C85.4976 164.57 85.4929 164.587 85.4903 164.598C85.4891 164.603 85.4889 164.607 85.4883 164.609C85.488 164.611 85.4875 164.612 85.4874 164.612L85.335 165.271L84.7501 164.933L84.7481 164.932L84.7139 164.912C84.6896 164.898 84.6529 164.877 84.6055 164.85C84.5103 164.795 84.3696 164.715 84.1905 164.613C83.8322 164.41 83.3178 164.119 82.6944 163.772C81.4471 163.079 79.7645 162.159 78.0206 161.256C76.2745 160.352 74.4751 159.468 72.9932 158.843C72.2515 158.53 71.6004 158.287 71.0811 158.138C70.8213 158.063 70.6041 158.014 70.4317 157.991C70.2511 157.967 70.1561 157.976 70.1212 157.984C69.8693 158.047 69.7177 158.217 69.6475 158.586C69.5727 158.98 69.6188 159.511 69.7393 160.084C69.8577 160.646 70.0368 161.201 70.1885 161.618C70.264 161.826 70.3323 161.997 70.3809 162.116C70.405 162.175 70.4244 162.221 70.4376 162.252C70.4441 162.267 70.449 162.28 70.4522 162.287L70.4571 162.297L71.0274 163.581L69.7745 162.946L70.0001 162.5L69.7735 162.945H69.7725C69.7713 162.945 69.769 162.944 69.7667 162.942C69.762 162.94 69.7552 162.936 69.7462 162.932C69.7276 162.922 69.6996 162.908 69.6631 162.89C69.5898 162.852 69.4804 162.796 69.338 162.724C69.053 162.578 68.6336 162.364 68.0967 162.089C67.0227 161.538 65.4766 160.741 63.5889 159.756C59.8135 157.786 54.6698 155.066 49.1973 152.063C38.274 146.071 25.9727 138.921 20.6749 134.38L21.1895 133.537L43.1583 142.524Z" fill="#46ACC0"/>
</svg>
